<svg width="1140" height="500" viewBox="0 0 1140 500" fill="none" xmlns="http://www.w3.org/2000/svg">
<rect x="30" y="31" width="1" height="100" fill="#C9C9C9"/>
<rect x="30" y="31" width="0.999996" height="101" transform="rotate(-90 30 31)" fill="#C9C9C9"/>
<rect x="570.707" y="41.1284" width="1" height="100" transform="rotate(-135 570.707 41.1284)" fill="#C9C9C9"/>
<rect x="570.707" y="41.1284" width="0.999996" height="101" transform="rotate(135 570.707 41.1284)" fill="#C9C9C9"/>
<rect x="569.293" y="459.707" width="1" height="100" transform="rotate(45 569.293 459.707)" fill="#C9C9C9"/>
<rect x="569.293" y="459.707" width="0.999996" height="101" transform="rotate(-45 569.293 459.707)" fill="#C9C9C9"/>
<rect x="41.1284" y="249.293" width="1" height="100" transform="rotate(135 41.1284 249.293)" fill="#C9C9C9"/>
<rect x="41.1284" y="249.293" width="0.999996" height="101" transform="rotate(45 41.1284 249.293)" fill="#C9C9C9"/>
<rect x="1099.71" y="250.707" width="1" height="100" transform="rotate(-45 1099.71 250.707)" fill="#C9C9C9"/>
<rect x="1099.71" y="250.707" width="0.999996" height="101" transform="rotate(-135 1099.71 250.707)" fill="#C9C9C9"/>
<rect x="1109" y="30" width="1" height="100" transform="rotate(90 1109 30)" fill="#C9C9C9"/>
<rect x="1109" y="30" width="0.999996" height="101" fill="#C9C9C9"/>
<rect x="1110" y="469" width="1" height="100" transform="rotate(-180 1110 469)" fill="#C9C9C9"/>
<rect x="1110" y="469" width="0.999996" height="101" transform="rotate(90 1110 469)" fill="#C9C9C9"/>
<rect x="31" y="470" width="1" height="100" transform="rotate(-90 31 470)" fill="#C9C9C9"/>
<rect x="31" y="470" width="0.999996" height="101" transform="rotate(180 31 470)" fill="#C9C9C9"/>
</svg>
